<svg id="Layer_1" enable-background="new 0 0 511.006 511.006" height="512" viewBox="0 0 511.006 511.006" width="512" xmlns="http://www.w3.org/2000/svg"><path d="m467.013 327.696c-25.291-35.392-79.14-66.502-122.479-70.714-2.358-.229-1.962.106-1.962-.938 0-16.122-4.409-31.23-12.078-44.193 36.574-25.135 68.136-80.194 72.356-123.615 5.093-52.411-32.84-74.335-75.699-43.705-35.392 25.291-66.502 79.14-70.714 122.479-.231 2.387.079 1.962-.938 1.962-16.121 0-31.229 4.409-44.191 12.077-25.018-36.42-80.024-68.12-123.617-72.356-52.411-5.088-74.336 32.839-43.705 75.7 25.291 35.392 79.14 66.502 122.479 70.714 2.387.232 1.962-.063 1.962.938 0 16.121 4.409 31.229 12.077 44.191-36.535 25.109-68.131 80.152-72.355 123.617-3.877 39.891 16.31 57.79 38.542 57.79 47.596 0 103.383-79.778 108.034-138.536 16.117.122 31.451-4.073 44.966-12.067 13.573 19.759 34.866 36.709 55.625 48.694 93.871 54.2 154.942 8.474 111.697-52.038z" fill="#e88793"/><path d="m476.273 128.581c-27.488-47.608-137.463-4.479-176.582 52.468-13.49-7.979-28.821-12.189-44.966-12.067-3.502-44.243-35.372-99.079-70.877-124.451-42.837-30.615-80.795-8.732-75.699 43.705 4.266 43.896 36.177 98.752 72.356 123.615-7.969 13.472-12.205 28.855-12.068 44.967-68.947 5.457-161.174 79.127-133.711 126.691 27.557 47.727 137.596 4.285 176.582-52.468 12.963 7.667 28.071 12.077 44.191 12.077 1.015 0 .706-.426.938 1.962 4.208 43.301 35.289 97.164 70.714 122.479 43.333 30.969 80.754 8.313 75.699-43.705-4.266-43.895-36.167-98.736-72.355-123.617 8.012-13.545 12.204-28.944 12.067-44.96 69.035-5.482 161.154-79.166 133.711-126.696z" fill="#fc93a0"/><path d="m474.501 212.34c-45.675-20.77-122.372-17.657-158.493 10.016-6.388-11.427-15.907-20.875-27.402-27.155 28.377-35.983 31.419-113.446 10.599-159.231-21.794-47.935-65.606-47.955-87.41 0-20.84 45.83-17.681 123.371 10.599 159.231-11.495 6.279-21.014 15.728-27.402 27.155-36.231-27.756-112.907-30.746-158.495-10.016-47.935 21.794-47.958 65.606 0 87.41 45.675 20.77 122.372 17.657 158.493-10.016 6.278 11.231 15.588 20.542 26.82 26.82-27.778 36.256-30.735 112.93-10.016 158.493 21.794 47.935 65.606 47.958 87.41 0 20.638-45.385 17.799-122.188-10.016-158.493 11.231-6.278 20.541-15.588 26.82-26.82 36.229 27.756 112.906 30.746 158.493 10.016 47.935-21.794 47.958-65.606 0-87.41z" fill="#fda5b7"/><g fill="#f7bfcc"><path d="m255.499 168.972c-48.012 0-87.072 39.061-87.072 87.072s39.061 87.072 87.072 87.072 87.072-39.061 87.072-87.072-39.06-87.072-87.072-87.072z"/><path d="m231.157 37.682c25.056 34.336 3.712 64.031 38.975 31.552 13.745-12.66 22.133-25.019 29.174-33.029-20.668-46.284-60.633-46.687-82.54-9.792 4.894 1.339 9.738 4.894 14.391 11.269z"/><path d="m35.351 217.712c-1.062-1.175-2.054-2.283-3.016-3.36-43.016 21.853-43.108 63.86 4.082 85.36 7.539-22.775 16.783-62.239-1.066-82z"/><path d="m457.046 205.961c-7.297 7.696-12.255 21.505-2.245 45.861 8.258 20.092 15.783 35.649 21.746 46.962 49.82-23.904 45.965-73.774-19.501-92.823z"/><path d="m233.013 443.214c-8.295 13.982-14.831 25.296-20.094 34.215 21.148 43.691 60.273 43.629 81.852 6.262-9.911-26.166-36.124-83.69-61.758-40.477z"/></g><path d="m458.213 316.812c-37.372 4.869-47.657 47.314-64.001 80.339 78.768 25.227 113.106-25.742 64.001-80.339z" fill="#fc93a0"/><path d="m46.142 187.301c4.378-4.232 9.144-10.156 14.265-18.329 11.097-17.711 9.765-40.462 6.766-60.029-35.821 5.093-51.542 38.416-21.031 78.358z" fill="#fc93a0"/><path d="m392.627 90.636c3.964.229 7.179.683 9.794 1.333 7.224-55.38-30.311-75.344-69.264-51.418 39.594 44.332 9.335 47.197 59.47 50.085z" fill="#fc93a0"/><path d="m168.427 434.278c-33.718-7.28-50.263 12.987-60.747.729.726 43.301 37.527 64.889 82.84 27.401.216-12.599-3.953-24.213-22.093-28.13z" fill="#fc93a0"/><path d="m108.186 88.566c30.219 19.795 42.101 27.603 53.371-1.7 5.447-14.164 13.453-30.031 22.682-42.044-43.1-31.2-81.403-9.28-76.053 43.744z" fill="#fda5b7"/><path d="m422.322 159.249c19.889 15.872 32.662 25.262 40.457 30.683 38.964-48.219 12.433-92.106-51.488-79.446-3.326 13.286-10.715 31.409 11.031 48.763z" fill="#fda5b7"/><path d="m87.318 358.931c-17.667-18.144-31.407-28.491-41.012-34.365-36.566 47.623-9.013 90.56 55.825 76.52 3.956-10.626 10.262-16.404-14.813-42.155z" fill="#fda5b7"/><path d="m396.087 393.208c-7.667 16.684-14.726 25.976-31.301 20.954-29.696-8.997-28.768-11.78-38.047 35.547-1.097 5.593-2.324 10.495-3.634 14.804 17.628 13.802 40.547 23.452 59.857 12.305 26.409-15.248 22.829-54.26 13.125-83.61z" fill="#fda5b7"/><path d="m255.499 168.972c-48.012 0-87.072 39.061-87.072 87.072s68.477-10.844 116.489-10.844 57.655 58.857 57.655 10.845-39.06-87.073-87.072-87.073z" fill="#f9cfda"/><path d="m255.499 234.269c-12.007 0-21.775 9.769-21.775 21.775 0 12.007 9.769 21.775 21.775 21.775 12.007 0 21.775-9.769 21.775-21.775.001-12.006-9.768-21.775-21.775-21.775z" fill="#fda5b7"/></svg>